<svg width="26" height="25" viewBox="0 0 26 25" fill="none" xmlns="http://www.w3.org/2000/svg">
<path d="M22.375 5.20853L3.62497 5.20853C3.43514 5.20912 3.24906 5.26148 3.08677 5.35997C2.92448 5.45845 2.79212 5.59933 2.70394 5.76744C2.61576 5.93555 2.57509 6.12453 2.58632 6.31403C2.59756 6.50354 2.66026 6.68639 2.76768 6.84291L12.1427 20.3846C12.5312 20.946 13.4666 20.946 13.8562 20.3846L23.2312 6.84291C23.3397 6.68671 23.4034 6.50377 23.4152 6.31395C23.4271 6.12413 23.3867 5.9347 23.2984 5.76623C23.2101 5.59776 23.0774 5.4567 22.9146 5.35838C22.7518 5.26006 22.5652 5.20823 22.375 5.20853Z" fill="black"/>
</svg>
