<svg width="301" height="301" viewBox="0 0 301 301" fill="none" xmlns="http://www.w3.org/2000/svg">
<circle cx="150.5" cy="150.25" r="150.25" fill="white"/>
<path d="M225.625 125.208H175.542V75.1252C175.542 68.4837 172.904 62.1143 168.207 57.418C163.511 52.7218 157.142 50.0835 150.5 50.0835C143.859 50.0835 137.489 52.7218 132.793 57.418C128.097 62.1143 125.458 68.4837 125.458 75.1252L126.347 125.208H75.3752C68.7337 125.208 62.3643 127.847 57.668 132.543C52.9718 137.239 50.3335 143.609 50.3335 150.25C50.3335 156.892 52.9718 163.261 57.668 167.957C62.3643 172.654 68.7337 175.292 75.3752 175.292L126.347 174.403L125.458 225.375C125.458 232.017 128.097 238.386 132.793 243.082C137.489 247.779 143.859 250.417 150.5 250.417C157.142 250.417 163.511 247.779 168.207 243.082C172.904 238.386 175.542 232.017 175.542 225.375V174.403L225.625 175.292C232.267 175.292 238.636 172.654 243.332 167.957C248.029 163.261 250.667 156.892 250.667 150.25C250.667 143.609 248.029 137.239 243.332 132.543C238.636 127.847 232.267 125.208 225.625 125.208Z" fill="#1384D6"/>
</svg>
