<svg width="26" height="26" viewBox="0 0 26 26" fill="none" xmlns="http://www.w3.org/2000/svg">
<path d="M10.3958 11.0832C10.8746 11.0832 11.3487 10.9889 11.791 10.8056C12.2334 10.6224 12.6353 10.3539 12.9738 10.0153C13.3124 9.67678 13.5809 9.27487 13.7641 8.83254C13.9474 8.3902 14.0417 7.91611 14.0417 7.43734C14.0417 6.95856 13.9474 6.48447 13.7641 6.04214C13.5809 5.5998 13.3124 5.19789 12.9738 4.85934C12.6353 4.5208 12.2334 4.25225 11.791 4.06903C11.3487 3.88581 10.8746 3.7915 10.3958 3.7915C9.4289 3.7915 8.50157 4.17562 7.81784 4.85934C7.13411 5.54307 6.75 6.4704 6.75 7.43734C6.75 8.40427 7.13411 9.3316 7.81784 10.0153C8.50157 10.6991 9.4289 11.0832 10.3958 11.0832Z" stroke="#1384D6" stroke-width="2.08333" stroke-linejoin="round"/>
<path d="M19.7708 16.2917V21.5M19.7708 16.2917L21.8542 18.375M19.7708 16.2917L17.6875 18.375M14.5625 15.25H10.2917C7.95833 15.25 6.79167 15.25 5.9 15.7042C5.11603 16.1036 4.47863 16.741 4.07917 17.525C3.625 18.4167 3.625 19.5833 3.625 21.9167V22.5417H14.5625" stroke="#1384D6" stroke-width="2.08333" stroke-linecap="round" stroke-linejoin="round"/>
</svg>
